<mxfile host="Electron" modified="2024-03-27T14:04:51.541Z" agent="Mozilla/5.0 (Windows NT 10.0; Win64; x64) AppleWebKit/537.36 (KHTML, like Gecko) draw.io/24.1.0 Chrome/120.0.6099.109 Electron/28.1.0 Safari/537.36" etag="i-_miURIsiA2nn4yEk5w" version="24.1.0" type="device">
  <diagram name="Page-1" id="MQbIgiZocyk_pTRY4y90">
    <mxGraphModel dx="1050" dy="621" grid="1" gridSize="10" guides="1" tooltips="1" connect="1" arrows="1" fold="1" page="1" pageScale="1" pageWidth="1169" pageHeight="827" math="0" shadow="0">
      <root>
        <mxCell id="0" />
        <mxCell id="1" parent="0" />
        <mxCell id="euxrha2cAjoXXrgxE2Pz-1" value="" style="rounded=0;whiteSpace=wrap;html=1;strokeColor=none;strokeWidth=9;fillColor=#40A29E;" parent="1" vertex="1">
          <mxGeometry width="1160" height="820" as="geometry" />
        </mxCell>
        <mxCell id="euxrha2cAjoXXrgxE2Pz-3" value="" style="ellipse;whiteSpace=wrap;html=1;aspect=fixed;strokeWidth=9;strokeColor=#FFFFFF;fillColor=default;" parent="1" vertex="1">
          <mxGeometry x="320" y="150" width="520" height="520" as="geometry" />
        </mxCell>
        <mxCell id="euxrha2cAjoXXrgxE2Pz-2" value="&lt;font color=&quot;#40a29e&quot; style=&quot;font-size: 250px;&quot;&gt;&lt;b style=&quot;&quot;&gt;DK&lt;/b&gt;&lt;/font&gt;" style="text;html=1;align=center;verticalAlign=middle;whiteSpace=wrap;rounded=0;" parent="1" vertex="1">
          <mxGeometry x="175" y="285" width="810" height="250" as="geometry" />
        </mxCell>
      </root>
    </mxGraphModel>
  </diagram>
</mxfile>
